HIERARCHY
ROOT Hips
{
  OFFSET -32.5998 29.0326 120.673
  CHANNELS 6 Xposition Yposition Zposition Zrotation Xrotation Yrotation
  JOINT LeftUpLeg
  {
    OFFSET 8.64259 1.95398 -2.38835
    CHANNELS 3 Zrotation Xrotation Yrotation
    JOINT LeftLeg
    {
      OFFSET 43.7702 0 0
      CHANNELS 3 Zrotation Xrotation Yrotation
      JOINT LeftFoot
      {
        OFFSET 40.6238 0 0
        CHANNELS 3 Zrotation Xrotation Yrotation
        JOINT LeftToeBase
        {
          OFFSET 12.7242 0 0
          CHANNELS 3 Zrotation Xrotation Yrotation
          End Site
          {
            OFFSET 0 0 0
          }
        }
      }
    }
  }
  JOINT RightUpLeg
  {
    OFFSET -8.2249 1.95398 -2.59336
    CHANNELS 3 Zrotation Xrotation Yrotation
    JOINT RightLeg
    {
      OFFSET 43.5653 0 0
      CHANNELS 3 Zrotation Xrotation Yrotation
      JOINT RightFoot
      {
        OFFSET 40.6238 0 0
        CHANNELS 3 Zrotation Xrotation Yrotation
        JOINT RightToeBase
        {
          OFFSET 12.7242 0 0
          CHANNELS 3 Zrotation Xrotation Yrotation
          End Site
          {
            OFFSET 0 0 0
          }
        }
      }
    }
  }
  JOINT Spine
  {
    OFFSET 0.165834 0.87714 6.61349
    CHANNELS 3 Zrotation Xrotation Yrotation
    JOINT Spine1
    {
      OFFSET 7.38963 1.71661e-005 0
      CHANNELS 3 Zrotation Xrotation Yrotation
      JOINT Spine2
      {
        OFFSET 11.9445 1.14441e-005 0
        CHANNELS 3 Zrotation Xrotation Yrotation
        JOINT Spine3
        {
          OFFSET 14.7254 4.19617e-005 0
          CHANNELS 3 Zrotation Xrotation Yrotation
          JOINT Spine4
          {
            OFFSET 10.9679 0 0
            CHANNELS 3 Zrotation Xrotation Yrotation
            JOINT RightShoulder
            {
              OFFSET 2.46616 -1.6653 3.69651
              CHANNELS 3 Zrotation Xrotation Yrotation
              JOINT RightArm
              {
                OFFSET 13.0012 0 0
                CHANNELS 3 Zrotation Xrotation Yrotation
                JOINT RightForeArm
                {
                  OFFSET 28.7848 1.62311e-005 0
                  CHANNELS 3 Zrotation Xrotation Yrotation
                  JOINT RightHand
                  {
                    OFFSET 26.5688 1.62095e-005 0
                    CHANNELS 3 Zrotation Xrotation Yrotation
                    End Site
                    {
                      OFFSET 0 0 0
                    }
                  }
                }
              }
            }
            JOINT LeftShoulder
            {
              OFFSET 2.38034 -1.29275 -3.7523
              CHANNELS 3 Zrotation Xrotation Yrotation
              JOINT LeftArm
              {
                OFFSET 16.3182 6.07031e-005 0
                CHANNELS 3 Zrotation Xrotation Yrotation
                JOINT LeftForeArm
                {
                  OFFSET 27.0901 0 0
                  CHANNELS 3 Zrotation Xrotation Yrotation
                  JOINT LeftHand
                  {
                    OFFSET 24.5451 1.51738e-005 0
                    CHANNELS 3 Zrotation Xrotation Yrotation
                    End Site
                    {
                      OFFSET 0 0 0
                    }
                  }
                }
              }
            }
            JOINT Neck
            {
              OFFSET 5.0226 -0.0266342 0
              CHANNELS 3 Zrotation Xrotation Yrotation
              JOINT Head
              {
                OFFSET 6.69364 2.86102e-005 0
                CHANNELS 3 Zrotation Xrotation Yrotation
                End Site
                {
                  OFFSET 0 0 0
                }
              }
            }
          }
        }
      }
    }
  }
}
MOTION
Frames:	9
Frame Time:	0.0416667
-212.597 99.9034 -191.979 -101.554 42.7382 -82.5416 -172.25 0.690734 92.9492 -16.8868 7.99536 -0.196154 65.544 3.52927 0.17993 25.4447 -2.07045 1.56185 171.308 -0.806834 89.6927 -19.7861 -1.81359 1.78831 69.5093 -5.56679 -1.69945 18.4749 2.28259 7.03443 0.257174 8.20585 -89.9977 10.4624 0.5134 -0.0408679 -1.20841 0.51109 -0.063432 -23.7444 0.50193 0.115325 -3.73172 0.50194 0.115321 91.6626 -26.8758 -104.547 44.8414 -16.7002 -2.33193 -16.6545 -14.4105 -30.604 -9.65067 -0.0585816 -4.69478 -89.8211 -52.591 79.5304 -19.9647 25.157 -7.55167 11.5581 2.20396 -19.6961 -3.35385 -0.0866739 -4.4716 7.81006 -1.05586 -1.65808 -4.13684 -0.681664 -1.53735 
-212.617 99.8707 -191.856 -100.808 42.7207 -82.5191 -171.933 1.81641 93.542 -17.6512 8.58705 -0.433335 65.3899 3.45892 0.794038 26.0304 -1.31516 0.423673 171.827 -0.476366 90.3903 -19.4819 -1.33405 1.77352 69.29 -5.393 -1.81966 18.3676 2.32307 7.03908 0.224581 8.15022 -90.0212 10.5737 0.437607 -0.0815263 -1.09723 0.433613 -0.100717 -23.633 0.441878 0.0537607 -3.62032 0.441864 0.0537603 91.4241 -27.1415 -104.947 44.975 -16.7736 -2.02755 -17.1034 -14.7118 -31.1051 -8.68561 -0.0136429 -5.28682 -89.7478 -51.9976 79.5176 -19.6479 24.9524 -7.79852 11.8162 2.07559 -20.4333 -3.40693 -0.086206 -4.32555 7.79072 -0.990112 -2.07078 -4.11591 -0.53564 -1.05865 
-212.859 99.9197 -191.691 -100.942 43.1656 -82.6443 -172.073 1.35347 93.062 -17.242 7.76294 -0.44862 65.6796 3.58788 0.248773 25.145 -2.13931 1.42513 171.623 -0.286441 90.068 -19.6547 -1.87584 1.63684 69.2844 -5.36978 -1.68489 18.4385 2.28065 7.0806 0.236749 8.18762 -89.9917 10.4988 0.475414 -0.0258213 -1.17211 0.473837 -0.0467275 -23.7079 0.461179 0.118258 -3.69529 0.4612 0.118254 91.4277 -27.2966 -104.881 44.604 -16.7078 -2.03344 -16.8101 -14.5483 -30.6784 -8.88499 -0.0437125 -4.86534 -89.6196 -51.5983 79.6246 -19.4049 24.2463 -8.37871 12.458 2.76666 -21.309 -3.30424 -0.0857279 -4.56743 8.19158 -0.816818 -1.89701 -4.37342 -0.391503 -1.16049 
-212.983 99.9043 -191.353 -100.664 43.7483 -82.6923 -172.124 1.79432 92.8896 -17.4191 7.52111 -0.544508 65.482 3.45639 0.911212 24.5024 -2.0623 0.652189 171.709 0.103317 89.8563 -19.8232 -2.48988 1.56715 69.0744 -5.3685 -1.87545 18.4766 2.20148 7.26596 0.235646 8.18482 -90.0203 10.5045 0.460117 -0.0813328 -1.16636 0.456107 -0.101517 -23.7022 0.463276 0.060709 -3.68952 0.463295 0.0607138 91.8247 -28.0678 -103.79 43.6596 -17.1342 -2.65096 -16.767 -15.2558 -30.1328 -9.34357 -0.0362875 -4.97295 -89.7237 -51.9949 79.5519 -18.6999 23.5935 -8.62271 13.2754 4.15915 -21.9159 -4.48908 -0.0853483 -4.33166 8.25685 -0.498814 -1.20434 -4.43368 -0.217562 -1.80223 
-212.518 99.662 -190.654 -100.427 44.7969 -82.8854 -172.096 3.67966 92.7005 -19.6198 7.16804 -0.908189 65.7073 3.12307 1.21912 23.225 -2.72322 0.877978 171.471 3.18888 89.7415 -23.5893 -3.98051 1.66156 68.9245 -5.64612 -2.42392 18.1963 2.3547 7.14347 0.322866 8.22599 -90.0783 10.4224 0.607322 -0.209165 -1.2484 0.597532 -0.235692 -23.7847 0.642112 -0.0169622 -3.77203 0.642101 -0.0169619 92.4324 -26.846 -102.948 43.9788 -17.2472 -2.75336 -17.1802 -15.7795 -30.4825 -9.33007 -0.0538414 -4.73791 -89.8996 -52.2284 79.3426 -18.9115 22.7959 -8.56592 13.3036 3.35454 -22.5018 -3.09248 -0.0850401 -3.87822 9.37226 -0.361468 -0.179156 -4.95957 -0.280142 -2.36743 
-211.082 99.0363 -189.172 -99.075 45.5419 -84.8936 -172.749 7.35425 91.3792 -22.4396 6.19144 -1.23549 65.7479 2.83193 1.4448 22.3008 -2.90331 0.422288 170.775 10.2712 88.6055 -31.5141 -6.93175 1.79126 68.6126 -5.31634 -2.75503 17.9494 2.49378 7.02531 0.38921 8.37236 -89.9839 10.1295 0.783037 -0.0338713 -1.54127 0.780774 -0.0682945 -24.0782 0.757001 0.203051 -4.06558 0.757002 0.203046 92.2168 -26.6393 -103.467 43.055 -16.4417 -3.0351 -18.1095 -15.2879 -32.1834 -8.46651 -0.0155145 -5.26503 -89.6434 -51.6361 79.5975 -19.3907 20.6 -6.76713 13.8234 0.779213 -27.6595 -1.59652 -0.0847759 -3.52315 12.5293 0.0680274 1.15056 -5.25172 -0.180012 -2.37056 
-208.389 98.0756 -186.685 -94.3653 43.5657 -90.3384 -174.071 15.358 88.7771 -26.2461 7.55001 -1.65067 63.5149 1.38025 2.31575 21.3158 -3.58014 0.912231 170.635 19.9131 86.7879 -37.9985 -9.25756 1.7405 66.804 -3.71354 -2.38469 17.5694 2.80946 6.56389 0.362585 8.51006 -89.851 9.85289 0.790326 0.231856 -1.81784 0.799742 0.196841 -24.3543 0.684103 0.458674 -4.34168 0.68409 0.458659 91.5885 -25.895 -105.074 41.7159 -15.1334 -3.28836 -20.024 -16.737 -33.9276 -7.33848 0.000194329 -5.57595 -89.6557 -51.2649 79.5045 -19.3113 17.9115 -5.44384 15.1376 0.00396604 -32.7614 -1.14522 -0.0809697 -3.56626 18.3736 -0.0191254 3.55463 -4.64756 -1.06028 -3.08665 
-204.441 96.534 -183.794 -89.0903 37.2673 -96.4814 -173.701 26.7549 86.2416 -30.8372 16.3527 -3.60855 58.6605 -1.61403 1.22357 20.4067 -3.9433 0.804557 168.736 29.5103 84.3233 -42.1783 -7.21941 3.57893 67.5765 -3.82772 -3.6336 15.9884 3.03701 7.66008 0.0577897 8.65458 -89.8785 9.56442 0.17008 0.227469 -2.10656 0.17991 0.21976 -24.6414 0.093851 0.268068 -4.62877 0.0938593 0.268072 91.8097 -25.2549 -104.845 38.5135 -16.8139 -2.85706 -19.1247 -14.2574 -35.1462 -8.77067 -0.0269397 -5.08889 -90.1634 -50.4721 78.5833 -21.4961 14.814 -3.43008 18.6025 1.91424 -38.2978 -0.910285 -0.0777872 -3.33904 26.1568 -0.358553 5.47849 -4.63325 -2.29239 -2.88697 
-201.082 94.7702 -181.135 -87.9718 33.111 -98.7926 -170.384 31.8741 83.6758 -40.1608 19.296 -5.82251 64.8076 2.42394 -0.0291196 24.9419 -3.01414 3.18861 166.773 35.2814 82.0541 -45.4858 -6.77785 5.16226 69.6829 -5.10255 -4.29121 14.1414 3.42215 8.56435 -0.137281 8.81359 -89.9774 9.2469 -0.263581 0.0638254 -2.42402 -0.26052 0.0753603 -24.9594 -0.270578 -0.0183414 -4.94678 -0.270575 -0.0183464 91.7299 -25.1548 -105.056 38.0127 -12.8255 -0.373859 -14.8168 -9.51258 -30.1316 -10.8586 -0.0348568 -5.01157 -90.348 -49.2164 78.0347 -23.6749 15.1133 -2.43493 22.2137 5.15874 -39.9414 0.0541431 -0.0298592 -1.81031 27.9632 -1.16634 3.62896 -4.26898 -2.48757 -1.37131 
